<?xml version="1.0" encoding="UTF-8" standalone="no"?>
<svg width="315px" height="92px" viewBox="0 0 315 92" version="1.1" xmlns="http://www.w3.org/2000/svg" xmlns:xlink="http://www.w3.org/1999/xlink">
    <!-- Generator: Sketch 44 (41411) - http://www.bohemiancoding.com/sketch -->
    <title>Logo/lg_ebox-white</title>
    <desc>Created with Sketch.</desc>
    <defs>
        <polygon id="path-1" points="0 68 273 68 273 0 0 0"></polygon>
    </defs>
    <g id="Ebox_splash-page_v02a" stroke="none" stroke-width="1" fill="none" fill-rule="evenodd">
        <g id="Ebox_splash-page" transform="translate(-800.000000, -40.000000)">
            <g id="Logo/lg_ebox-white" transform="translate(800.000000, 40.000000)">
                <g id="Page-1">
                    <polygon id="Fill-1" fill="#FEFEFE" points="2 21.4361997 9.86473312 25.9975863 38.9979269 9.11818714 68.135023 26 76 21.4386134 38.9979269 0"></polygon>
                    <polygon id="Fill-2" fill="#FEFEFE" points="14 29.3263129 21.8163887 33.9975283 37.9976973 24.3374875 54.1836113 34 62 29.3287846 37.9976973 15"></polygon>
                    <polygon id="Fill-3" fill="#FEFEFE" points="5.86075763 50 2 52.250736 10.13899 57 14 54.7495153"></polygon>
                    <polygon id="Fill-4" fill="#FEFEFE" points="17.8571609 42 14 44.2484376 22.1428391 49 26 46.7515624"></polygon>
                    <polygon id="Fill-5" fill="#FEFEFE" points="39 54 51.2097583 46.7098185 54.9094578 48.9164176 62.7106878 44.2584799 59.0109883 42.0516344 57.6668746 42.8541237 66.8821335 37.3520441 63.9575492 39.098247 67.6572487 41.3048461 75.4584787 36.6469084 71.7587792 34.4403093 77 31.3106997 77 22 39 44.6890539"></polygon>
                    <polygon id="Fill-6" fill="#FEFEFE" points="39 69 77 46.3106997 77 37 39 59.6890539"></polygon>
                    <polygon id="Fill-7" fill="#FEFEFE" points="39 84 77 61.3109461 77 52 39 74.6890539"></polygon>
                    <polygon id="Fill-8" fill="#FEFEFE" points="104.77295 44.4342699 125.127758 44.4342699 125.127758 38.9783679 104.77295 38.9783679 104.77295 29.4556582 138.546444 29.4556582 138.546444 24 97 24 97 61 139 61 139 55.5443418 104.77295 55.5443418"></polygon>
                    <polygon id="Fill-9" fill="#FEFEFE" points="49 36.4828343 37.9977439 30 27 36.4804441 34.658049 40.9976098 37.9977439 39.0295511 41.341951 41"></polygon>
                    <polygon id="Fill-10" fill="#FEFEFE" points="72.136162 50 64 54.7478108 67.863838 57 76 52.2521892"></polygon>
                    <polygon id="Fill-11" fill="#FEFEFE" points="0 31.3106997 5.24146273 34.4403093 1.54587588 36.6444438 9.34710586 41.3023815 13.0424508 39.0984935 38 54 38 44.6890539 0 22"></polygon>
                    <polygon id="Fill-12" fill="#FEFEFE" points="0 46.3106997 38 69 38 59.6893003 0 37"></polygon>
                    <polygon id="Fill-13" fill="#FEFEFE" points="0 61.3109461 38 84 38 74.6890539 0 52"></polygon>
                    <polygon id="Fill-14" fill="#FEFEFE" points="291.861848 41.3352288 311.173175 24 301.522911 24 287.720621 37.6673029 272.394914 24 262 24 283.140065 42.1243306 262.563765 61 272.624396 61 287.371121 45.8341883 304.192018 61 315 61"></polygon>
                    <g id="Group-41" transform="translate(97.000000, 24.000000)">
                        <mask id="mask-2" fill="white">
                            <use xlink:href="#path-1"></use>
                        </mask>
                        <g id="Clip-16"></g>
                        <path d="M117,31 L152,31 L152,5 L117,5 L117,31 Z M149.693801,0 L118.306199,0 C115.542665,0 109,0.0459169192 109,7.23167053 L109,29.7680852 C109,36.9540831 115.542665,37 118.306199,37 L149.693801,37 C152.457335,37 159,36.9540831 159,29.7680852 L159,27.2414335 L159,7.23167053 C159,0.0459169192 152.457335,0 149.693801,0 L149.693801,0 Z" id="Fill-15" fill="#FEFEFE" mask="url(#mask-2)"></path>
                        <path d="M89,27.5928178 C89,30.4217135 86.9907551,31 84.2727583,31 L61,31 L61,20 L84.6763266,20 C88.3896328,20 89,22.0122923 89,23.3236385 L89,27.5928178 Z M61,5 L84.8455588,5 C88.920579,5 89,7.12194935 89,8.22031294 L89,12.1909652 C89,13.5003457 88.5631844,15 84.7127091,15 L61,15 L61,5 Z M89.3118711,17.8958074 L89.4000839,17.8948319 C95.7331853,17.2510101 96.6952646,14.3547875 96.6952646,11.4990476 L96.6952646,6.75256889 C96.6952646,0.799168199 91.1237587,0 84.8446057,0 L53,0 L53,37 L84.4504424,37 C96.8964774,37 97,31.8433288 97,29.5316671 L97,24.9861388 C97,23.1780726 96.8646431,18.551335 89.3118711,17.8958074 L89.3118711,17.8958074 Z" id="Fill-17" fill="#FEFEFE" mask="url(#mask-2)"></path>
                        <path d="M0,49.5156866 C0,49.2441942 0.215729783,49 0.512327416,49 L11.4876726,49 C11.7842702,49 12,49.2441942 12,49.5156866 L12,51.7414775 C12,52.0129699 11.7842702,52.2571641 11.4876726,52.2571641 L3.50567061,52.2571641 L3.50567061,57.3599305 L10.1661736,57.3599305 C10.4358974,57.3599305 10.6787475,57.6043729 10.6787475,57.8758653 L10.6787475,60.101408 C10.6787475,60.3729004 10.4358974,60.6170946 10.1661736,60.6170946 L3.50567061,60.6170946 L3.50567061,67.4843134 C3.50567061,67.7558058 3.26282051,68 2.9933432,68 L0.512327416,68 C0.215729783,68 0,67.7558058 0,67.4843134 L0,49.5156866 Z" id="Fill-18" fill="#FEFEFE" mask="url(#mask-2)"></path>
                        <path d="M18.5,65 C19.8802381,65 21,63.8725798 21,62.4753496 C21,61.1027698 19.8802381,60 18.5,60 C17.0938095,60 16,61.1027698 16,62.4753496 C16,63.8725798 17.0938095,65 18.5,65 M18.5,57 C21.5315984,57 24,59.5142583 24,62.4736602 C24,65.4855022 21.5315984,68 18.5,68 C15.4684016,68 13,65.4855022 13,62.4736602 C13,59.5142583 15.4684016,57 18.5,57" id="Fill-19" fill="#FEFEFE" mask="url(#mask-2)"></path>
                        <path d="M26,57.5097226 C26,57.2146329 26.2306827,57 26.487153,57 L28.5897881,57 C28.8462584,57 29.0769411,57.2146329 29.0769411,57.5097226 L29.0769411,62.7950896 C29.0769411,64.2170636 29.7692236,65.1023325 30.948659,65.1023325 C32.025647,65.1023325 32.8461647,64.0559049 32.9999531,63.0901793 L32.9999531,57.5097226 C32.9999531,57.1071938 33.153976,57 33.5642348,57 L35.512847,57 C35.7693173,57 36,57.2146329 36,57.5097226 L36,67.2219249 C36,67.4902774 35.7693173,67.7316475 35.512847,67.7316475 L34.5640941,67.7316475 C34.3078582,67.7316475 34.1538353,67.5437517 34.0769411,67.3291187 L33.7693642,66.4438498 C33.3077644,66.8731157 32.3590116,68 30.3332708,68 C27.1538822,68 26,65.4511417 26,62.7146329 L26,57.5097226 Z" id="Fill-20" fill="#FEFEFE" mask="url(#mask-2)"></path>
                        <path d="M39,57.7780751 C39,57.4829855 39.256062,57.2683525 39.5407488,57.2683525 L40.6222463,57.2683525 C40.8785686,57.2683525 41.0492765,57.4025288 41.1346305,57.6171617 L41.5330359,58.663344 C41.9317015,58.1268843 42.9848345,57 44.7494242,57 C46.0869838,57 47.2824602,57.4025288 46.9410442,58.0731647 L45.8879112,59.8172108 C45.7455678,60.0585809 45.460881,60.1657747 45.2331836,60.0585809 C45.1478296,60.0318437 44.7207994,59.8976675 44.407748,59.8976675 C43.2692611,59.8976675 42.5861689,60.622023 42.3870963,60.9975694 L42.3870963,67.4902774 C42.3870963,67.8658237 42.1307741,68 41.7323687,68 L39.5407488,68 C39.256062,68 39,67.7586299 39,67.4902774 L39,57.7780751 Z" id="Fill-21" fill="#FEFEFE" mask="url(#mask-2)"></path>
                        <path d="M48,57.7780751 C48,57.4829855 48.2431485,57.2683525 48.5134783,57.2683525 L49.5404349,57.2683525 C49.7838305,57.2683525 49.9189954,57.4025288 50.0000449,57.5901793 L50.3783583,58.5828873 C50.783853,58.1536214 52.1080735,57 54.1891679,57 C57.6216641,57 59,59.5488583 59,62.3390866 L59,67.4902774 C59,67.7586299 58.7568515,68 58.4865217,68 L56.2702624,68 C55.9729985,68 55.7567841,67.7586299 55.7567841,67.4902774 L55.7567841,62.1779279 C55.7567841,60.7829364 55.0268443,59.8976675 53.7295579,59.8976675 C52.3242879,59.8976675 51.4594303,60.8633931 51.1891005,61.5877486 L51.1891005,67.4902774 C51.1891005,67.8658237 51.0270015,68 50.5135232,68 L48.5134783,68 C48.2431485,68 48,67.7586299 48,67.4902774 L48,57.7780751 Z" id="Fill-22" fill="#FEFEFE" mask="url(#mask-2)"></path>
                        <path d="M62,57.5224686 C62,57.22 62.2974157,57 62.6280792,57 L65.3719208,57 C65.7025843,57 66,57.22 66,57.5224686 L66,67.4775314 C66,67.7525943 65.7025843,68 65.3719208,68 L62.6280792,68 C62.2974157,68 62,67.7525943 62,67.4775314 L62,57.5224686 Z M62,52 C62,50.8986352 62.8695422,50 63.9709799,50 C65.1015703,50 66,50.8986352 66,52 C66,53.1013648 65.1015703,54 63.9709799,54 C62.8695422,54 62,53.1013648 62,52 L62,52 Z" id="Fill-23" fill="#FEFEFE" mask="url(#mask-2)"></path>
                        <path d="M68.1320419,66.4809091 L68.8448749,65.0666986 C68.950605,64.8047368 69.2144474,64.7522966 69.4522193,64.8832775 C69.4522193,64.8832775 70.6403548,65.511842 71.8548022,65.511842 C72.3827283,65.511842 72.7525422,65.3023205 72.7525422,64.8571771 C72.7525422,64.3856938 72.3827283,64.0976316 70.9836155,63.5476076 C68.950605,62.7619618 68,61.6880143 68,60.0906221 C68,58.4929906 69.1881355,57 71.881114,57 C73.438822,57 74.5740925,57.4453829 75.1285719,57.8119857 C75.3663438,57.969067 75.4983857,58.2571292 75.3663438,58.5190909 L74.7061344,59.8547608 C74.5740925,60.0906221 74.2836969,60.1167225 74.0724782,60.0381819 C74.0724782,60.0381819 72.8843427,59.488158 71.881114,59.488158 C71.2474578,59.488158 70.9836155,59.7501197 70.9836155,60.0906221 C70.9836155,60.561866 71.4586766,60.7191867 72.4355934,61.1118899 C74.4686038,61.8975358 76,62.7619618 76,64.8047368 C76,66.5333493 74.4686038,68 71.8019372,68 C70.0593223,68 68.8448749,67.4499761 68.2903956,67.030933 C68.1320419,66.8999521 68.0265532,66.6904306 68.1320419,66.4809091" id="Fill-24" fill="#FEFEFE" mask="url(#mask-2)"></path>
                        <path d="M78.1320419,66.4809091 L78.8448749,65.0666986 C78.950605,64.8047368 79.2144474,64.7522966 79.4522193,64.8832775 C79.4522193,64.8832775 80.6403548,65.511842 81.8548022,65.511842 C82.3827283,65.511842 82.7525422,65.3023205 82.7525422,64.8571771 C82.7525422,64.3856938 82.3827283,64.0976316 80.9836155,63.5476076 C78.950605,62.7619618 78,61.6880143 78,60.0906221 C78,58.4929906 79.1881355,57 81.881114,57 C83.438822,57 84.5740925,57.4453829 85.1285719,57.8119857 C85.3663438,57.969067 85.4983857,58.2571292 85.3663438,58.5190909 L84.7061344,59.8547608 C84.5740925,60.0906221 84.2836969,60.1167225 84.0724782,60.0381819 C84.0724782,60.0381819 82.8843427,59.488158 81.881114,59.488158 C81.2474578,59.488158 80.9836155,59.7501197 80.9836155,60.0906221 C80.9836155,60.561866 81.4586766,60.7191867 82.4355934,61.1118899 C84.4686038,61.8975358 86,62.7619618 86,64.8047368 C86,66.5333493 84.4686038,68 81.8019372,68 C80.0593223,68 78.8448749,67.4499761 78.2903956,67.030933 C78.1320419,66.8999521 78.0265532,66.6904306 78.1320419,66.4809091" id="Fill-25" fill="#FEFEFE" mask="url(#mask-2)"></path>
                        <path d="M94,61 C93.9205619,59.9116579 93.072899,59 92.0663599,59 C91.0067813,59 90.1324776,59.882345 90,61 L94,61 Z M92.2174625,57 C94.8515643,57 97,59.0428195 97,61.8715415 C97,62.0547271 96.9745125,62.395237 96.9487911,62.5786621 C96.9233036,62.8406296 96.6929804,63.0238152 96.4628911,63.0238152 L89.9156339,63.0238152 C89.9923304,64.0977861 90.8874339,65.3025013 92.3708554,65.3025013 C93.163775,65.3025013 93.9054857,64.9880924 94.3656643,64.647822 C94.621475,64.4904979 94.8515643,64.4382959 95.0306786,64.647822 L96.079175,65.8786381 C96.2582893,66.0620633 96.3094982,66.3501317 96.0536875,66.5596578 C95.2097928,67.3714217 93.9054857,68 92.24295,68 C89.1739232,68 87,65.5120273 87,62.5001197 C87,59.540414 89.1739232,57 92.2174625,57 L92.2174625,57 Z" id="Fill-26" fill="#FEFEFE" mask="url(#mask-2)"></path>
                        <path d="M100,57.5097226 C100,57.2146329 100.230683,57 100.487153,57 L102.589788,57 C102.846258,57 103.076941,57.2146329 103.076941,57.5097226 L103.076941,62.7950896 C103.076941,64.2170636 103.769224,65.1023325 104.948659,65.1023325 C106.025647,65.1023325 106.846165,64.0559049 106.999953,63.0901793 L106.999953,57.5097226 C106.999953,57.1071938 107.153976,57 107.564235,57 L109.512847,57 C109.769317,57 110,57.2146329 110,57.5097226 L110,67.2219249 C110,67.4902774 109.769317,67.7316475 109.512847,67.7316475 L108.564094,67.7316475 C108.307858,67.7316475 108.153835,67.5437517 108.076941,67.3291187 L107.769364,66.4438498 C107.307764,66.8731157 106.359012,68 104.333271,68 C101.153882,68 100,65.4511417 100,62.7146329 L100,57.5097226 Z" id="Fill-27" fill="#FEFEFE" mask="url(#mask-2)"></path>
                        <path d="M113,57.7780751 C113,57.4829855 113.256062,57.2683525 113.540749,57.2683525 L114.622246,57.2683525 C114.878569,57.2683525 115.049277,57.4025288 115.134631,57.6171617 L115.533036,58.663344 C115.931702,58.1268843 116.984835,57 118.749424,57 C120.086984,57 121.28246,57.4025288 120.941044,58.0731647 L119.887911,59.8172108 C119.745568,60.0585809 119.460881,60.1657747 119.233184,60.0585809 C119.14783,60.0318437 118.720799,59.8976675 118.407748,59.8976675 C117.269261,59.8976675 116.586169,60.622023 116.387096,60.9975694 L116.387096,67.4902774 C116.387096,67.8658237 116.130774,68 115.732369,68 L113.540749,68 C113.256062,68 113,67.7586299 113,67.4902774 L113,57.7780751 Z" id="Fill-28" fill="#FEFEFE" mask="url(#mask-2)"></path>
                        <path d="M128,57.5224686 C128,57.22 128.297416,57 128.628079,57 L131.371921,57 C131.702584,57 132,57.22 132,57.5224686 L132,67.4775314 C132,67.7525943 131.702584,68 131.371921,68 L128.628079,68 C128.297416,68 128,67.7525943 128,67.4775314 L128,57.5224686 Z M128,52 C128,50.8986352 128.869542,50 129.97098,50 C131.10157,50 132,50.8986352 132,52 C132,53.1013648 131.10157,54 129.97098,54 C128.869542,54 128,53.1013648 128,52 L128,52 Z" id="Fill-29" fill="#FEFEFE" mask="url(#mask-2)"></path>
                        <path d="M135,57.7780751 C135,57.4829855 135.243149,57.2683525 135.513478,57.2683525 L136.540435,57.2683525 C136.783831,57.2683525 136.918995,57.4025288 137.000045,57.5901793 L137.378358,58.5828873 C137.783853,58.1536214 139.108074,57 141.189168,57 C144.621664,57 146,59.5488583 146,62.3390866 L146,67.4902774 C146,67.7586299 145.756604,68 145.486522,68 L143.270262,68 C142.972998,68 142.756784,67.7586299 142.756784,67.4902774 L142.756784,62.1779279 C142.756784,60.7829364 142.026844,59.8976675 140.729558,59.8976675 C139.324288,59.8976675 138.45943,60.8633931 138.189101,61.5877486 L138.189101,67.4902774 C138.189101,67.8658237 138.027002,68 137.513523,68 L135.513478,68 C135.243149,68 135,67.7586299 135,67.4902774 L135,57.7780751 Z" id="Fill-30" fill="#FEFEFE" mask="url(#mask-2)"></path>
                        <path d="M149.413038,60.1071809 L148.488985,60.1071809 C148.21741,60.1071809 148,59.8743641 148,59.6155211 L148,57.8816988 C148,57.5970661 148.21741,57.390039 148.488985,57.390039 L149.413038,57.390039 L149.413038,54.5174494 C149.413038,54.2586064 149.657531,54.0257897 149.929355,54.0257897 L152.157866,54 C152.42969,54 152.6471,54.2328168 152.6471,54.4916598 L152.6471,57.390039 L155.038606,57.390039 C155.337513,57.390039 155.554923,57.5970661 155.554923,57.8816988 L155.554923,59.6155211 C155.554923,59.8743641 155.337513,60.1071809 155.038606,60.1071809 L152.6471,60.1071809 L152.6471,64.2477227 C152.6471,64.9721992 153.054588,65.0758311 153.489407,65.0758311 C153.951558,65.0758311 154.522041,64.8945936 154.821196,64.7911984 C155.120103,64.6875665 155.337513,64.8169881 155.419011,65.0758311 L155.962411,66.7062581 C156.07124,66.9648645 155.935327,67.2237076 155.663503,67.3273394 C155.527591,67.404945 153.761231,68 152.42969,68 C150.337091,68 149.413038,66.7578375 149.413038,64.6617769 L149.413038,60.1071809 Z" id="Fill-31" fill="#FEFEFE" mask="url(#mask-2)"></path>
                        <path d="M164,61 C163.920562,59.9116579 163.072899,59 162.06636,59 C161.006781,59 160.132478,59.882345 160,61 L164,61 Z M162.217462,57 C164.851564,57 167,59.0428195 167,61.8715415 C167,62.0547271 166.974512,62.395237 166.948791,62.5786621 C166.923304,62.8406296 166.69298,63.0238152 166.462891,63.0238152 L159.915634,63.0238152 C159.99233,64.0977861 160.887434,65.3025013 162.370855,65.3025013 C163.163775,65.3025013 163.905486,64.9880924 164.365664,64.647822 C164.621475,64.4904979 164.851564,64.4382959 165.030679,64.647822 L166.079175,65.8786381 C166.258289,66.0620633 166.309498,66.3501317 166.053688,66.5596578 C165.209793,67.3714217 163.905486,68 162.24295,68 C159.173923,68 157,65.5120273 157,62.5001197 C157,59.540414 159.173923,57 162.217462,57 L162.217462,57 Z" id="Fill-32" fill="#FEFEFE" mask="url(#mask-2)"></path>
                        <path d="M170,57.7780751 C170,57.4829855 170.256062,57.2683525 170.540749,57.2683525 L171.622246,57.2683525 C171.878569,57.2683525 172.049277,57.4025288 172.134631,57.6171617 L172.533036,58.663344 C172.931702,58.1268843 173.984835,57 175.749424,57 C177.086984,57 178.28246,57.4025288 177.941044,58.0731647 L176.887911,59.8172108 C176.745568,60.0585809 176.460881,60.1657747 176.233184,60.0585809 C176.14783,60.0318437 175.720799,59.8976675 175.407748,59.8976675 C174.269261,59.8976675 173.586169,60.622023 173.387096,60.9975694 L173.387096,67.4902774 C173.387096,67.8658237 173.130774,68 172.732369,68 L170.540749,68 C170.256062,68 170,67.7586299 170,67.4902774 L170,57.7780751 Z" id="Fill-33" fill="#FEFEFE" mask="url(#mask-2)"></path>
                        <path d="M179,57.7780751 C179,57.4829855 179.243149,57.2683525 179.513478,57.2683525 L180.540435,57.2683525 C180.783831,57.2683525 180.918995,57.4025288 181.000045,57.5901793 L181.378358,58.5828873 C181.783853,58.1536214 183.108074,57 185.189168,57 C188.621664,57 190,59.5488583 190,62.3390866 L190,67.4902774 C190,67.7586299 189.756604,68 189.486522,68 L187.270262,68 C186.972998,68 186.756784,67.7586299 186.756784,67.4902774 L186.756784,62.1779279 C186.756784,60.7829364 186.026844,59.8976675 184.729558,59.8976675 C183.324288,59.8976675 182.45943,60.8633931 182.189101,61.5877486 L182.189101,67.4902774 C182.189101,67.8658237 182.027002,68 181.513523,68 L179.513478,68 C179.243149,68 179,67.7586299 179,67.4902774 L179,57.7780751 Z" id="Fill-34" fill="#FEFEFE" mask="url(#mask-2)"></path>
                        <path d="M199,61 C198.920562,59.9116579 198.072899,59 197.06636,59 C196.006781,59 195.132478,59.882345 195,61 L199,61 Z M197.217462,57 C199.851564,57 202,59.0428195 202,61.8715415 C202,62.0547271 201.974512,62.395237 201.948791,62.5786621 C201.923304,62.8406296 201.69298,63.0238152 201.462891,63.0238152 L194.915634,63.0238152 C194.99233,64.0977861 195.887434,65.3025013 197.370855,65.3025013 C198.163775,65.3025013 198.905486,64.9880924 199.365664,64.647822 C199.621475,64.4904979 199.851564,64.4382959 200.030679,64.647822 L201.079175,65.8786381 C201.258289,66.0620633 201.309498,66.3501317 201.053688,66.5596578 C200.209793,67.3714217 198.905486,68 197.24295,68 C194.173923,68 192,65.5120273 192,62.5001197 C192,59.540414 194.173923,57 197.217462,57 L197.217462,57 Z" id="Fill-35" fill="#FEFEFE" mask="url(#mask-2)"></path>
                        <path d="M205.413038,60.1071809 L204.488985,60.1071809 C204.21741,60.1071809 204,59.8743641 204,59.6155211 L204,57.8816988 C204,57.5970661 204.21741,57.390039 204.488985,57.390039 L205.413038,57.390039 L205.413038,54.5174494 C205.413038,54.2586064 205.657531,54.0257897 205.929355,54.0257897 L208.157866,54 C208.42969,54 208.6471,54.2328168 208.6471,54.4916598 L208.6471,57.390039 L211.038606,57.390039 C211.337513,57.390039 211.554923,57.5970661 211.554923,57.8816988 L211.554923,59.6155211 C211.554923,59.8743641 211.337513,60.1071809 211.038606,60.1071809 L208.6471,60.1071809 L208.6471,64.2477227 C208.6471,64.9721992 209.054588,65.0758311 209.489407,65.0758311 C209.951558,65.0758311 210.522041,64.8945936 210.821196,64.7911984 C211.120103,64.6875665 211.337513,64.8169881 211.419011,65.0758311 L211.962411,66.7062581 C212.07124,66.9648645 211.935327,67.2237076 211.663503,67.3273394 C211.527591,67.404945 209.761231,68 208.42969,68 C206.337091,68 205.413038,66.7578375 205.413038,64.6617769 L205.413038,60.1071809 Z" id="Fill-36" fill="#FEFEFE" mask="url(#mask-2)"></path>
                    </g>
                </g>
            </g>
        </g>
    </g>
</svg>