<?xml version="1.0" encoding="utf-8"?>
<!-- Generator: Adobe Illustrator 16.0.0, SVG Export Plug-In . SVG Version: 6.00 Build 0)  -->
<!DOCTYPE svg PUBLIC "-//W3C//DTD SVG 1.1//EN" "http://www.w3.org/Graphics/SVG/1.1/DTD/svg11.dtd">
<svg version="1.1" id="Layer_1" xmlns="http://www.w3.org/2000/svg" xmlns:xlink="http://www.w3.org/1999/xlink" x="0px" y="0px"
	 width="218px" height="58px" viewBox="0 0 218 58" enable-background="new 0 0 218 58" xml:space="preserve">
<g>
	<polygon fill="#FFFFFF" points="66.909,42.184 66.909,16.712 95.773,16.712 95.773,20.476 72.327,20.476 72.327,27.041 
		86.447,27.041 86.447,30.805 72.327,30.805 72.327,38.42 96.039,38.42 96.039,42.184 66.909,42.184 	"/>
	<path fill="#FFFFFF" d="M103.384,42.184V16.712h24.157c2.211,0,3.814,0.399,4.812,1.195c0.996,0.796,1.494,2.068,1.494,3.818v2.905
		c0,1.348-0.402,2.369-1.203,3.063c-0.801,0.694-2.08,1.129-3.838,1.305c1.705,0.156,3.002,0.659,3.889,1.509
		c0.885,0.852,1.33,1.992,1.33,3.42v3.238c0,1.693-0.686,2.952-2.051,3.777c-1.365,0.826-3.447,1.239-6.246,1.239H103.384
		L103.384,42.184z M128.43,24.921v-2.383c0-0.774-0.221-1.31-0.66-1.611c-0.438-0.301-1.238-0.452-2.402-0.452h-16.566v6.477h16.566
		c1.252,0,2.074-0.145,2.469-0.435C128.23,26.229,128.43,25.695,128.43,24.921L128.43,24.921z M108.801,30.717v7.703h16.566
		c1.221,0,2.066-0.208,2.537-0.626c0.467-0.42,0.703-1.163,0.703-2.232v-1.983c0-1.051-0.24-1.789-0.721-2.218
		c-0.48-0.427-1.32-0.644-2.52-0.644H108.801L108.801,30.717z"/>
	<path fill="#FFFFFF" d="M141.988,22.738c0-2.32,0.494-3.906,1.484-4.754c0.992-0.848,2.84-1.272,5.549-1.272h20.66
		c2.707,0,4.557,0.424,5.547,1.272s1.486,2.434,1.486,4.754V36.16c0,2.331-0.49,3.917-1.471,4.76
		c-0.98,0.842-2.834,1.264-5.562,1.264h-20.66c-2.752,0-4.611-0.416-5.58-1.247c-0.969-0.832-1.453-2.424-1.453-4.776V22.738
		L141.988,22.738z M147.406,38.332h23.891V20.476h-23.891V38.332L147.406,38.332z"/>
	<polygon fill="#FFFFFF" points="181.498,42.184 195.889,29.155 181.27,16.712 188.596,16.712 198.924,25.958 208.396,16.712 
		215.062,16.712 201.895,28.54 218,42.184 210.41,42.184 198.859,31.854 188.461,42.184 181.498,42.184 	"/>
	<polygon fill="#FFFFFF" points="26.677,20.803 18.862,25.342 24.367,28.541 26.691,27.19 26.677,27.181 26.677,20.803 	"/>
	<polygon fill="#FFFFFF" points="0.972,35.735 6.477,38.933 9.055,37.436 3.55,34.237 0.972,35.735 	"/>
	<polygon fill="#FFFFFF" points="26.691,20.794 26.707,20.803 26.707,20.785 26.691,20.794 	"/>
	<polygon fill="#FFFFFF" points="9.917,30.539 15.422,33.737 18,32.238 12.496,29.042 9.917,30.539 	"/>
	<polygon fill="#FFFFFF" points="9.056,27.042 3.55,23.844 0.972,25.342 6.477,28.541 9.056,27.042 	"/>
	<polygon fill="#FFFFFF" points="26.707,10.393 26.691,10.401 26.707,10.41 26.707,10.393 	"/>
	<polygon fill="#FFFFFF" points="26.677,16.789 26.677,10.41 9.917,20.146 15.422,23.344 26.691,16.797 26.677,16.789 	"/>
	<polygon fill="#FFFFFF" points="26.707,0 26.691,0.009 26.707,0.017 26.707,0 	"/>
	<polygon fill="#FFFFFF" points="26.691,6.404 26.677,6.396 26.677,0.017 0.972,14.95 6.476,18.147 26.691,6.404 	"/>
	<polygon fill="#FFFFFF" points="0.141,36.254 0,36.172 0,41.565 0,42.568 26.565,58 26.565,56.998 26.565,51.604 5.615,39.434 
		0.141,36.254 	"/>
	<polygon fill="#FFFFFF" points="9.055,31.039 5.615,29.042 0.141,25.861 0,25.779 0,31.173 0,32.175 3.55,34.237 9.055,37.436 
		26.565,47.606 26.565,46.606 26.565,41.211 14.561,34.237 9.055,31.039 	"/>
	<polygon fill="#FFFFFF" points="18,25.843 14.561,23.845 9.055,20.646 5.614,18.648 0.141,15.469 0,15.386 0,20.78 0,21.781 
		3.55,23.844 9.056,27.042 12.496,29.042 18,32.238 26.565,37.214 26.565,36.213 26.565,30.818 23.505,29.042 18,25.843 	"/>
	<polygon fill="#FFFFFF" points="40.887,29.041 35.382,32.238 37.961,33.736 43.466,30.538 40.887,29.041 	"/>
	<polygon fill="#FFFFFF" points="26.707,20.803 26.691,20.794 26.677,20.785 26.677,20.803 26.677,27.181 26.691,27.19 
		29.016,28.541 34.521,25.342 26.707,20.803 	"/>
	<polygon fill="#FFFFFF" points="46.907,38.933 52.411,35.734 49.833,34.237 44.328,37.435 46.907,38.933 	"/>
	<polygon fill="#FFFFFF" points="46.906,28.541 52.412,25.342 49.833,23.843 44.327,27.042 46.906,28.541 	"/>
	<polygon fill="#FFFFFF" points="26.691,10.401 26.677,10.393 26.677,10.41 26.677,16.789 26.691,16.797 37.961,23.344 
		43.467,20.146 26.707,10.41 26.691,10.401 	"/>
	<polygon fill="#FFFFFF" points="26.691,6.404 46.907,18.147 52.412,14.949 26.707,0.017 26.691,0.009 26.677,0 26.677,0.017 
		26.677,6.396 26.691,6.404 	"/>
	<polygon fill="#FFFFFF" points="47.768,39.434 26.817,51.604 26.817,56.998 26.817,58 53.382,42.568 53.382,41.565 53.382,36.172 
		53.243,36.253 47.768,39.434 	"/>
	<polygon fill="#FFFFFF" points="47.768,29.041 44.328,31.039 38.823,34.237 26.817,41.211 26.817,46.606 26.817,47.606 
		44.328,37.435 49.833,34.237 53.382,32.175 53.382,31.173 53.382,25.779 53.243,25.86 47.768,29.041 	"/>
	<polygon fill="#FFFFFF" points="47.769,18.647 44.328,20.646 38.823,23.845 35.383,25.843 29.878,29.042 26.817,30.818 
		26.817,36.213 26.817,37.214 35.382,32.238 40.887,29.041 44.327,27.042 49.833,23.843 53.382,21.781 53.382,20.78 53.382,15.386 
		53.243,15.467 47.769,18.647 	"/>
</g>
</svg>
